<svg enable-background="new 0 0 1000 1000" viewBox="0 0 1000 1000" xmlns="http://www.w3.org/2000/svg"><path d="m641.7 44.8v231.9c0 64.2 21.4 126.6 60.9 177.3 93.4 119.9 87 289.5-15.2 402-32.4 35.7-56.3 62-56.3 62h-323v-673.7c0-12.1 3.8-23.8 10.8-33.6l9.4-13.1c13.9-19.5 24.7-40.9 32.1-63.7l3.1-9.5c33.4 14.9 78.7 25.5 106.1 8.7 51.2-31.3 121.4-93 172.1-88.3z" fill="#703326"/><path d="m702.5 454c-39.5-50.7-60.9-113.1-60.9-177.3v-160.4c-60.4 6.4-120.7 66-170.4 92.5-22.7 12.1-57.2 15.9-90.5 12.5v459.7l-73.7 55.6v181.4h324.1s23.8-26.3 56.3-62c102.1-112.5 108.5-282.2 15.1-402z" fill="#e56d42"/><path d="m627.4 911.6c0-.2.1-.4.2-.6l54.4-59.9c51.1-56.3 79.2-129.1 79.2-205.2 0-33.4-5.4-66.2-16.1-97.8-11-32.4-27.2-62.6-48.4-89.7-20.1-25.9-35.7-54.7-46.4-85.7-10.6-31-16-63.3-16-96.1v-159c0-.5.4-.9.9-.9s.9.4.9.9v159c0 32.6 5.4 64.7 15.9 95.5 10.6 30.8 26.1 59.4 46.1 85.1 21.3 27.3 37.6 57.7 48.6 90.3 10.7 31.7 16.1 64.8 16.1 98.3 0 76.5-28.3 149.8-79.7 206.4l-54.1 60c-.3.4-.9.4-1.3.1-.2-.2-.3-.5-.3-.7z" fill="#e5deda"/><path d="m518.6 178.3c-16.5 11.6-32.4 22.5-47.3 30.4-22.7 12.1-57.2 15.9-90.5 12.5v459.8l-73.8 55.6v181.4h211.6z" fill="#b45535"/><path d="m374.2 220.8c0-.1 0-.2 0-.3.2-1.5 1.5-2.6 3-2.4l3.7.4c34.6 3.6 67.8-1 89-12.2 16.1-8.6 33.3-20.6 51.5-33.3 36.3-25.5 77.5-54.4 118.4-59.3 1.5-.2 2.9.9 3 2.4.2 1.5-.9 2.8-2.4 3-39.5 4.7-80.1 33.2-115.9 58.3-18.3 12.8-35.6 25-52 33.7-22 11.7-56.5 16.5-92.1 12.8l-3.7-.4c-1.4-.1-2.5-1.3-2.5-2.7z" fill="#111414"/><path d="m394.3 215.6v-.1c.1-.8.7-1.3 1.5-1.3h.4c.8.1 1.3.7 1.3 1.5-.1.8-.7 1.3-1.5 1.3h-.5c-.7-.1-1.2-.7-1.2-1.4zm8.6.5c0-.8.7-1.4 1.4-1.4h.4c.8 0 1.4.7 1.3 1.4 0 .8-.7 1.3-1.4 1.3h-.4c-.7 0-1.3-.6-1.3-1.3zm9.5-.5c0-.7.6-1.3 1.3-1.4h.4c.8 0 1.4.6 1.4 1.3s-.6 1.4-1.3 1.4h-.4c-.7.1-1.3-.5-1.4-1.3zm8.7-.7c0-.7.6-1.3 1.3-1.4h.4c.8-.1 1.4.5 1.5 1.3.1.7-.5 1.4-1.3 1.5h-.5c-.7 0-1.4-.6-1.4-1.4zm9-1c0-.7.5-1.3 1.2-1.4l.4-.1c.7-.1 1.4.4 1.5 1.2.1.7-.4 1.4-1.2 1.5l-.5.1c-.7.1-1.4-.5-1.5-1.2.1 0 .1 0 .1-.1zm8.6-1.7c0-.6.5-1.2 1.1-1.3l.4-.1c.7-.1 1.5.3 1.6 1.1.1.7-.3 1.5-1.1 1.6l-.4.1c-.7.1-1.4-.4-1.6-1.1 0-.1 0-.2 0-.3zm9.7-2.3c0-.6.4-1.2 1-1.3l.4-.1c.7-.2 1.5.2 1.7 1 .2.7-.2 1.5-1 1.7l-.4.1c-.7.2-1.5-.3-1.7-1 0-.2 0-.3 0-.4zm8.4-2.7c0-.6.3-1.1.9-1.3l.4-.1c.7-.3 1.5.1 1.7.8.3.7-.1 1.5-.8 1.7l-.4.2c-.7.3-1.5-.1-1.7-.8-.1-.2-.1-.4-.1-.5zm9.4-3.8c0-.5.3-1 .8-1.2l.4-.2c.7-.3 1.5 0 1.8.6.3.7 0 1.5-.6 1.8l-.4.2c-.7.3-1.5 0-1.8-.6-.2-.2-.2-.4-.2-.6zm8.5-4c0-.5.2-.9.7-1.2l.4-.2c.7-.4 1.5-.2 1.9.5.4.6.2 1.5-.5 1.9l-.4.2c-.7.4-1.5.1-1.9-.5-.1-.2-.2-.4-.2-.7zm9.5-5.9c0-.5.2-.9.6-1.2l.4-.2c.6-.4 1.5-.2 1.9.4s.2 1.5-.4 1.9l-.4.2c-.6.4-1.5.2-1.9-.4-.1-.2-.2-.5-.2-.7zm8.9-6.1c0-.4.2-.9.6-1.1l.4-.2c.6-.4 1.5-.2 1.9.4s.2 1.5-.4 1.9l-.4.2c-.6.4-1.5.2-1.9-.4-.2-.3-.2-.6-.2-.8zm9.1-6.4c0-.4.2-.9.6-1.1l.4-.2c.6-.4 1.5-.3 1.9.4.4.6.3 1.5-.4 1.9l-.4.3c-.6.4-1.5.3-1.9-.4-.1-.4-.2-.6-.2-.9zm8.6-6.1c0-.4.2-.9.6-1.1l.4-.3c.6-.4 1.5-.3 1.9.3s.3 1.5-.3 1.9l-.4.3c-.6.4-1.5.3-1.9-.3-.2-.2-.3-.5-.3-.8zm9.5-6c0-.4.2-.8.6-1.1l.4-.3c.6-.4 1.5-.3 1.9.3s.3 1.5-.3 1.9l-.4.3c-.6.4-1.5.3-1.9-.3-.3-.3-.3-.5-.3-.8zm8.2-5.9c0-.4.2-.8.6-1.1l.4-.3c.6-.4 1.5-.3 1.9.3s.3 1.5-.3 1.9l-.4.3c-.6.4-1.5.3-1.9-.3-.3-.2-.3-.5-.3-.8zm9.2-6.3c0-.4.2-.9.6-1.1l.4-.3c.6-.4 1.5-.3 1.9.3s.3 1.5-.3 1.9l-.4.3c-.6.4-1.5.3-1.9-.4-.2-.2-.3-.4-.3-.7zm8.9-6.7c0-.4.2-.9.6-1.1l.4-.3c.6-.4 1.5-.3 1.9.4.4.6.3 1.5-.4 1.9l-.4.2c-.6.4-1.5.3-1.9-.4-.2-.1-.2-.4-.2-.7zm9-5c0-.4.2-.9.6-1.1l.4-.2c.6-.4 1.5-.2 1.9.4s.2 1.5-.4 1.9l-.4.2c-.6.4-1.5.2-1.9-.4-.1-.3-.2-.5-.2-.8zm8.6-5.4c0-.5.2-.9.6-1.2l.4-.2c.6-.4 1.5-.2 1.9.4s.2 1.5-.4 1.9l-.4.2c-.6.4-1.5.2-1.9-.4-.2-.2-.2-.4-.2-.7zm9.1-5.6c0-.5.2-.9.7-1.2l.4-.2c.6-.4 1.5-.2 1.9.5.4.6.2 1.5-.5 1.9l-.4.2c-.7.4-1.5.2-1.9-.5-.1-.2-.2-.4-.2-.7zm8.6-4.7c0-.5.3-.9.7-1.2l.4-.2c.7-.4 1.5-.1 1.8.6.4.7.1 1.5-.6 1.8l-.4.2c-.7.4-1.5.1-1.8-.5 0-.2-.1-.5-.1-.7zm9.7-4.8c0-.5.3-1 .8-1.2l.4-.2c.7-.3 1.5-.1 1.8.6s.1 1.5-.6 1.8l-.4.2c-.7.3-1.5.1-1.8-.6-.1-.2-.2-.4-.2-.6zm8.7-4.1c0-.5.3-1 .8-1.2l.4-.2c.7-.3 1.5 0 1.8.7s0 1.5-.7 1.8l-.4.2c-.7.3-1.5 0-1.8-.7 0-.2-.1-.4-.1-.6zm8.4-3.4c0-.6.3-1.1.9-1.3l.4-.2c.7-.3 1.5.1 1.7.8.3.7-.1 1.5-.8 1.7l-.4.2c-.7.3-1.5-.1-1.8-.8 0-.1 0-.2 0-.4zm9.5-3c0-.6.4-1.1 1-1.3l.4-.1c.7-.2 1.5.2 1.7.9s-.2 1.5-.9 1.7l-.4.1c-.7.2-1.5-.2-1.7-.9-.1-.1-.1-.3-.1-.4zm9-2.4c0-.6.4-1.2 1.1-1.3l.4-.1c.7-.2 1.5.3 1.6 1 .2.7-.3 1.5-1 1.6l-.4.1c-.7.2-1.5-.3-1.6-1-.1-.1-.1-.2-.1-.3z" fill="#e5deda"/><circle cx="523.3" cy="619.5" fill="#111414" r="66.5"/><path d="m433.6 619.5c0-49.5 40.3-89.7 89.7-89.7 49.5 0 89.7 40.3 89.7 89.7 0 49.5-40.3 89.7-89.7 89.7-49.5 0-89.7-40.2-89.7-89.7zm159.5 0c0-38.5-31.3-69.8-69.8-69.8s-69.8 31.3-69.8 69.8 31.3 69.8 69.8 69.8 69.8-31.3 69.8-69.8z" fill="#7c3c3c"/><path d="m301.2 769.6v-493.9c0-8.5 6.9-15.5 15.5-15.5h50.6c8.5 0 15.5 6.9 15.5 15.5v493.9c0 8.5-6.9 15.5-15.5 15.5h-50.6c-8.5 0-15.5-6.9-15.5-15.5z" fill="#111414"/><path d="m307.9 277.6c0-.5.4-.9.9-.9h66.2c.5 0 .9.4.9.9s-.4.9-.9.9h-66.2c-.5 0-.9-.4-.9-.9z" fill="#f4d192"/><path d="m307.9 309.3c0-.5.4-.9.9-.9h66.2c.5 0 .9.4.9.9s-.4.9-.9.9h-66.2c-.5.1-.9-.4-.9-.9z" fill="#f4d192"/><path d="m307.9 341.1c0-.5.4-.9.9-.9h66.2c.5 0 .9.4.9.9s-.4.9-.9.9h-66.2c-.5 0-.9-.4-.9-.9z" fill="#f4d192"/><path d="m307.9 372.9c0-.5.4-.9.9-.9h66.2c.5 0 .9.4.9.9s-.4.9-.9.9h-66.2c-.5 0-.9-.4-.9-.9z" fill="#f4d192"/><path d="m307.9 404.7c0-.5.4-.9.9-.9h66.2c.5 0 .9.4.9.9s-.4.9-.9.9h-66.2c-.5 0-.9-.4-.9-.9z" fill="#f4d192"/><path d="m307.9 431.9c0-.5.4-.9.9-.9h66.2c.5 0 .9.4.9.9s-.4.9-.9.9h-66.2c-.5.1-.9-.4-.9-.9z" fill="#f4d192"/><path d="m307.9 459.2c0-.5.4-.9.9-.9h66.2c.5 0 .9.4.9.9s-.4.9-.9.9h-66.2c-.5 0-.9-.4-.9-.9z" fill="#f4d192"/><path d="m307.9 481.9c0-.5.4-.9.9-.9h66.2c.5 0 .9.4.9.9s-.4.9-.9.9h-66.2c-.5 0-.9-.4-.9-.9z" fill="#f4d192"/><path d="m307.9 504.6c0-.5.4-.9.9-.9h66.2c.5 0 .9.4.9.9s-.4.9-.9.9h-66.2c-.5 0-.9-.4-.9-.9z" fill="#f4d192"/><path d="m307.9 527.3c0-.5.4-.9.9-.9h66.2c.5 0 .9.4.9.9s-.4.9-.9.9h-66.2c-.5 0-.9-.4-.9-.9z" fill="#f4d192"/><path d="m307.9 550c0-.5.4-.9.9-.9h66.2c.5 0 .9.4.9.9s-.4.9-.9.9h-66.2c-.5 0-.9-.4-.9-.9z" fill="#f4d192"/><path d="m307.9 568.2c0-.5.4-.9.9-.9h66.2c.5 0 .9.4.9.9s-.4.9-.9.9h-66.2c-.5 0-.9-.4-.9-.9z" fill="#f4d192"/><path d="m307.9 586.3c0-.5.4-.9.9-.9h66.2c.5 0 .9.4.9.9s-.4.9-.9.9h-66.2c-.5 0-.9-.4-.9-.9z" fill="#f4d192"/><path d="m307.9 604.5c0-.5.4-.9.9-.9h66.2c.5 0 .9.4.9.9s-.4.9-.9.9h-66.2c-.5 0-.9-.4-.9-.9z" fill="#f4d192"/><path d="m307.9 622.7c0-.5.4-.9.9-.9h66.2c.5 0 .9.4.9.9s-.4.9-.9.9h-66.2c-.5 0-.9-.4-.9-.9z" fill="#f4d192"/><path d="m307.9 636.3c0-.5.4-.9.9-.9h66.2c.5 0 .9.4.9.9s-.4.9-.9.9h-66.2c-.5 0-.9-.4-.9-.9z" fill="#f4d192"/><path d="m307.9 649.9c0-.5.4-.9.9-.9h66.2c.5 0 .9.4.9.9s-.4.9-.9.9h-66.2c-.5 0-.9-.4-.9-.9z" fill="#f4d192"/><path d="m307.9 663.5c0-.5.4-.9.9-.9h66.2c.5 0 .9.4.9.9s-.4.9-.9.9h-66.2c-.5 0-.9-.4-.9-.9z" fill="#f4d192"/><path d="m307.9 677.2c0-.5.4-.9.9-.9h66.2c.5 0 .9.4.9.9s-.4.9-.9.9h-66.2c-.5 0-.9-.4-.9-.9z" fill="#f4d192"/><path d="m307.9 688c0-.5.4-.9.9-.9h66.2c.5 0 .9.4.9.9s-.4.9-.9.9h-66.2c-.5.1-.9-.3-.9-.9z" fill="#f4d192"/><path d="m307.9 698.9c0-.5.4-.9.9-.9h66.2c.5 0 .9.4.9.9s-.4.9-.9.9h-66.2c-.5.1-.9-.4-.9-.9z" fill="#f4d192"/><path d="m307.9 709.8c0-.5.4-.9.9-.9h66.2c.5 0 .9.4.9.9s-.4.9-.9.9h-66.2c-.5.1-.9-.4-.9-.9z" fill="#f4d192"/><path d="m307.9 719.8c0-.5.4-.9.9-.9h66.2c.5 0 .9.4.9.9s-.4.9-.9.9h-66.2c-.5 0-.9-.4-.9-.9z" fill="#f4d192"/><path d="m307.9 729.8c0-.5.4-.9.9-.9h66.2c.5 0 .9.4.9.9s-.4.9-.9.9h-66.2c-.5 0-.9-.4-.9-.9z" fill="#f4d192"/><path d="m307.9 739.8c0-.5.4-.9.9-.9h66.2c.5 0 .9.4.9.9s-.4.9-.9.9h-66.2c-.5 0-.9-.4-.9-.9z" fill="#f4d192"/><path d="m307.9 749.8c0-.5.4-.9.9-.9h66.2c.5 0 .9.4.9.9s-.4.9-.9.9h-66.2c-.5 0-.9-.4-.9-.9z" fill="#f4d192"/><path d="m307.9 758.9c0-.5.4-.9.9-.9h66.2c.5 0 .9.4.9.9s-.4.9-.9.9h-66.2c-.5 0-.9-.4-.9-.9z" fill="#f4d192"/><path d="m307.9 768c0-.5.4-.9.9-.9h66.2c.5 0 .9.4.9.9s-.4.9-.9.9h-66.2c-.5 0-.9-.4-.9-.9z" fill="#f4d192"/><path d="m307.9 777c0-.5.4-.9.9-.9h66.2c.5 0 .9.4.9.9s-.4.9-.9.9h-66.2c-.5.1-.9-.3-.9-.9z" fill="#f4d192"/><circle cx="368.5" cy="418.1" fill="#505959" r="6.2"/><circle cx="368.5" cy="516.1" fill="#505959" r="5.1"/><circle cx="368.5" cy="578.1" fill="#505959" r="4.4"/><circle cx="368.5" cy="656.7" fill="#505959" r="4.2"/><circle cx="368.5" cy="704.4" fill="#505959" r="3.3"/><circle cx="368.5" cy="734.7" fill="#505959" r="2.5"/><circle cx="314.9" cy="418.1" fill="#505959" r="6.2"/><circle cx="314.9" cy="516.1" fill="#505959" r="5.1"/><circle cx="314.9" cy="578.1" fill="#505959" r="4.4"/><circle cx="314.9" cy="656.7" fill="#505959" r="4.2"/><circle cx="314.9" cy="704.4" fill="#505959" r="3.3"/><circle cx="314.9" cy="734.7" fill="#505959" r="2.5"/><path d="m369.8 255.9v-.1c.1-.8.7-1.3 1.5-1.3h.4c.8.1 1.3.7 1.3 1.5-.1.8-.7 1.3-1.5 1.3h-.5c-.7-.1-1.2-.7-1.2-1.4z" fill="#e5deda"/><path d="m356.6 255.9v-.1c.1-.8.7-1.3 1.5-1.3h.4c.8.1 1.3.7 1.3 1.5-.1.8-.7 1.3-1.5 1.3h-.5c-.6-.1-1.2-.7-1.2-1.4z" fill="#e5deda"/><path d="m343.8 255.9v-.1c.1-.8.7-1.3 1.5-1.3h.4c.8.1 1.3.7 1.3 1.5-.1.8-.7 1.3-1.5 1.3h-.5c-.7-.1-1.2-.7-1.2-1.4z" fill="#e5deda"/><path d="m331.2 255.9v-.1c.1-.8.7-1.3 1.5-1.3h.4c.8.1 1.3.7 1.3 1.5-.1.8-.7 1.3-1.5 1.3h-.5c-.6-.1-1.2-.7-1.2-1.4z" fill="#e5deda"/><path d="m319.4 255.9v-.1c.1-.8.7-1.3 1.5-1.3h.4c.8.1 1.3.7 1.3 1.5-.1.8-.7 1.3-1.5 1.3h-.5c-.7-.1-1.2-.7-1.2-1.4z" fill="#e5deda"/><path d="m303.6 921.5v-4.4c0-8 6.5-14.4 14.4-14.4h303.8c8 0 14.4 6.5 14.4 14.4v4.4c0 8-6.5 14.4-14.4 14.4h-303.8c-7.9 0-14.4-6.4-14.4-14.4z" fill="#111414"/><path d="m307.2 912.4c0-.5.4-.9.9-.9h323c.5 0 .9.4.9.9s-.4.9-.9.9h-323c-.5 0-.9-.4-.9-.9z" fill="#84807f"/><path d="m625.9 919.1v-846.2c0-.3.2-.5.5-.5s.5.2.5.5v846.3c0 .3-.2.5-.5.5s-.5-.3-.5-.6z" fill="#e5deda"/><circle cx="623.7" cy="72.2" fill="#111414" r="5.7"/><path d="m608 919.1v-837.6c0-.3.2-.5.5-.5s.5.2.5.5v837.6c0 .3-.2.5-.5.5-.2.1-.5-.2-.5-.5z" fill="#e5deda"/><circle cx="605.8" cy="80.8" fill="#111414" r="5.7"/><path d="m590.1 919.1v-829c0-.3.2-.5.5-.5s.5.2.5.5v829c0 .3-.2.5-.5.5-.2.1-.5-.2-.5-.5z" fill="#e5deda"/><circle cx="587.9" cy="89.4" fill="#111414" r="5.7"/><path d="m572.2 919.1v-819c0-.3.2-.5.5-.5s.5.2.5.5v819c0 .3-.2.5-.5.5-.2.1-.5-.2-.5-.5z" fill="#e5deda"/><circle cx="570" cy="99.4" fill="#111414" r="5.7"/><path d="m554.3 919.1v-809c0-.3.2-.5.5-.5s.5.2.5.5v809c0 .3-.2.5-.5.5-.2.1-.5-.2-.5-.5z" fill="#e5deda"/><circle cx="552.1" cy="109.4" fill="#111414" r="5.7"/><path d="m536.4 919.1v-797.4c0-.3.2-.5.5-.5s.5.2.5.5v797.4c0 .3-.2.5-.5.5-.2.1-.5-.2-.5-.5z" fill="#e5deda"/><circle cx="534.2" cy="121" fill="#111414" r="5.7"/><path d="m518.5 919.1v-785.5c0-.3.2-.5.5-.5s.5.2.5.5v785.5c0 .3-.2.5-.5.5-.2.1-.5-.2-.5-.5z" fill="#e5deda"/><circle cx="516.3" cy="132.9" fill="#111414" r="5.7"/><path d="m500.6 919.1v-772.2c0-.3.2-.5.5-.5s.5.2.5.5v772.2c0 .3-.2.5-.5.5s-.5-.2-.5-.5z" fill="#e5deda"/><circle cx="498.4" cy="146.2" fill="#111414" r="5.7"/><path d="m482.7 919.1v-758.3c0-.3.2-.5.5-.5s.5.2.5.5v758.3c0 .3-.2.5-.5.5-.2.1-.5-.2-.5-.5z" fill="#e5deda"/><circle cx="480.5" cy="160.1" fill="#111414" r="5.7"/><path d="m464.8 919.1v-747.5c0-.3.2-.5.5-.5s.5.2.5.5v747.5c0 .3-.2.5-.5.5s-.5-.2-.5-.5z" fill="#e5deda"/><circle cx="462.6" cy="170.9" fill="#111414" r="5.7"/><path d="m446.9 919.1v-741.3c0-.3.2-.5.5-.5s.5.2.5.5v741.3c0 .3-.2.5-.5.5-.2.1-.5-.2-.5-.5z" fill="#e5deda"/><circle cx="444.7" cy="177.1" fill="#111414" r="5.7"/><path d="m429 919.1v-737.5c0-.3.2-.5.5-.5s.5.2.5.5v737.6c0 .3-.2.5-.5.5s-.5-.3-.5-.6z" fill="#e5deda"/><circle cx="426.8" cy="180.8" fill="#111414" r="5.7"/><path d="m411.1 919.1v-735.3c0-.3.2-.5.5-.5s.5.2.5.5v735.3c0 .3-.2.5-.5.5s-.5-.2-.5-.5z" fill="#e5deda"/><circle cx="408.9" cy="183.1" fill="#111414" r="5.7"/><path d="m393.2 919.1v-735.9c0-.3.2-.5.5-.5s.5.2.5.5v735.9c0 .3-.2.5-.5.5s-.5-.2-.5-.5z" fill="#e5deda"/><circle cx="391" cy="182.5" fill="#111414" r="5.7"/><path d="m612.1 65c0-.3.2-.5.5-.5s.6.2.6.5l5.1 53.3v800.9c0 .3-.2.5-.5.5s-.5-.2-.5-.5v-800.9z" fill="#e5deda"/><circle cx="609.9" cy="64.3" fill="#111414" r="5.7"/><path d="m594.2 72.3c0-.3.2-.5.5-.5s.6.2.6.5l5.1 53.3v793.6c0 .3-.2.5-.5.5s-.5-.2-.5-.5v-793.6z" fill="#e5deda"/><circle cx="591.9" cy="71.6" fill="#111414" r="5.7"/><path d="m576.3 81.5c0-.3.2-.5.5-.5s.6.2.6.5l5.1 55.1v782.6c0 .3-.2.5-.5.5s-.5-.2-.5-.5v-782.6z" fill="#e5deda"/><circle cx="574" cy="80.8" fill="#111414" r="5.7"/><path d="m558.3 91.6c0-.3.2-.5.5-.5s.6.2.6.5l5.1 55.8v771.8c0 .3-.2.5-.5.5s-.5-.2-.5-.5v-771.8z" fill="#e5deda"/><circle cx="556.1" cy="90.8" fill="#111414" r="5.7"/><path d="m540.4 103.1c0-.3.2-.5.5-.5s.6.2.6.5l5.1 55.8v760.2c0 .3-.2.5-.5.5s-.5-.2-.5-.5v-760.2z" fill="#e5deda"/><circle cx="538.1" cy="102.4" fill="#111414" r="5.7"/><path d="m522.4 116c0-.3.2-.5.5-.5s.6.2.6.5l5.1 55.2v748c0 .3-.2.5-.5.5s-.5-.2-.5-.5v-748z" fill="#e5deda"/><circle cx="520.2" cy="115.3" fill="#111414" r="5.7"/><path d="m504.5 128.4c0-.3.2-.5.5-.5s.6.2.6.5l5.1 55.4v735.4c0 .3-.2.5-.5.5s-.5-.2-.5-.5v-735.4z" fill="#e5deda"/><circle cx="502.3" cy="127.7" fill="#111414" r="5.7"/><path d="m486.6 140.7c0-.3.2-.5.5-.5s.6.2.6.5l5.1 53.9v724.5c0 .3-.2.5-.5.5s-.5-.2-.5-.5v-724.5z" fill="#e5deda"/><circle cx="484.3" cy="140" fill="#111414" r="5.7"/><path d="m468.6 151.8c0-.3.2-.5.5-.5s.6.2.6.5l5.1 55.4v711.9c0 .3-.2.5-.5.5s-.5-.2-.5-.5v-711.9z" fill="#e5deda"/><circle cx="466.4" cy="151.1" fill="#111414" r="5.7"/><path d="m450.7 155.7c0-.3.2-.5.5-.5s.5.2.6.5l5.1 59.8v703.6c0 .3-.2.5-.5.5s-.5-.2-.5-.5v-703.6l-5.2-59.8c0 .1 0 .1 0 0z" fill="#e5deda"/><circle cx="448.5" cy="155" fill="#111414" r="5.7"/><path d="m432.8 156.9c0-.3.2-.5.5-.5s.5.2.6.5l5.1 62.9v699.3c0 .3-.2.5-.5.5s-.5-.2-.5-.5v-699.2z" fill="#e5deda"/><circle cx="430.5" cy="156.2" fill="#111414" r="5.7"/><path d="m414.8 155.6c0-.3.2-.5.5-.5s.5.2.6.5l5.1 66.4v697.1c0 .3-.2.5-.5.5s-.5-.2-.5-.5v-697.1z" fill="#e5deda"/><circle cx="412.6" cy="154.9" fill="#111414" r="5.7"/><path d="m396.9 152.7c0-.3.2-.5.5-.5s.5.2.6.5l5.1 70.1v696.4c0 .3-.2.5-.5.5s-.5-.2-.5-.5v-696.5z" fill="#e5deda"/><circle cx="394.6" cy="152" fill="#111414" r="5.7"/><g fill="#e5deda"><path d="m367 919.1v-642.8l9.1-118.4c0-.3.3-.5.6-.5s.5.3.5.6l-9.2 118.3v642.8c0 .3-.2.5-.5.5s-.5-.2-.5-.5z"/><path d="m353.4 919.1v-642.8l9.2-98.6c0-.3.3-.5.6-.5s.5.3.5.6l-9.2 98.6v642.8c0 .3-.2.5-.5.5s-.6-.3-.6-.6z"/><path d="m339.9 919.1v-642.8l9.7-80.5c0-.3.3-.5.6-.5s.5.3.5.6l-9.7 80.4v642.8c0 .3-.2.5-.5.5s-.6-.2-.6-.5z"/><path d="m326.3 919.1v-642.8l10.9-62.3c0-.3.3-.5.6-.4s.5.3.4.6l-10.9 62.2v642.8c0 .3-.2.5-.5.5s-.5-.3-.5-.6z"/><path d="m312.8 919.1v-642.8l10.3-42.2c.1-.3.4-.5.6-.4.3.1.5.4.4.6l-10.3 42v642.7c0 .3-.2.5-.5.5s-.5-.1-.5-.4z"/><circle cx="626.3" cy="923.7" r="1.1"/><circle cx="617.4" cy="923.7" r="1.1"/><circle cx="608.4" cy="923.7" r="1.1"/><circle cx="599.5" cy="923.7" r="1.1"/><circle cx="590.6" cy="923.7" r="1.1"/><circle cx="581.6" cy="923.7" r="1.1"/><circle cx="572.7" cy="923.7" r="1.1"/><circle cx="563.7" cy="923.7" r="1.1"/><circle cx="554.8" cy="923.7" r="1.1"/><circle cx="545.8" cy="923.7" r="1.1"/><circle cx="536.9" cy="923.7" r="1.1"/><circle cx="527.9" cy="923.7" r="1.1"/><circle cx="519" cy="923.7" r="1.1"/><circle cx="510.1" cy="923.7" r="1.1"/><circle cx="501.1" cy="923.7" r="1.1"/><circle cx="492.2" cy="923.7" r="1.1"/><circle cx="483.2" cy="923.7" r="1.1"/><circle cx="474.3" cy="923.7" r="1.1"/><circle cx="465.3" cy="923.7" r="1.1"/><circle cx="456.4" cy="923.7" r="1.1"/><circle cx="447.5" cy="923.7" r="1.1"/><circle cx="438.5" cy="923.7" r="1.1"/><circle cx="429.6" cy="923.7" r="1.1"/><circle cx="420.6" cy="923.7" r="1.1"/><circle cx="411.7" cy="923.7" r="1.1"/><circle cx="402.7" cy="923.7" r="1.1"/><circle cx="393.8" cy="923.7" r="1.1"/><circle cx="367.6" cy="923.7" r="1.1"/><circle cx="354" cy="923.7" r="1.1"/><circle cx="340.4" cy="923.7" r="1.1"/><circle cx="326.7" cy="923.7" r="1.1"/><circle cx="313.1" cy="923.7" r="1.1"/></g><circle cx="372.2" cy="158.3" fill="#111414" r="5.7"/><circle cx="359.3" cy="176.8" fill="#111414" r="5.7"/><circle cx="346.4" cy="195.4" fill="#111414" r="5.7"/><circle cx="333.5" cy="214" fill="#111414" r="5.7"/><circle cx="320.6" cy="232.5" fill="#111414" r="5.7"/></svg>